# xmcd CD database file
#
# Track frame offsets:
#	150
#	27960
#	58842
#	84105
#	100943
#	131333
#	152660
#	177845
#	200882
#	225834
#
# Disc length: 3442 seconds
#
# Revision: 0
# Processed by: cddbd v1.4PL0 Copyright (c) Steve Scherf et al.
# Submitted via: CDex 1.51
#
DISCID=740d700a
DTITLE=Sonia Cat-berro Quintet - Keep in touch
DYEAR=2003
DGENRE=Jazz
TTITLE0=Doodle-ee-oo the song
TTITLE1=Follow me if you can
TTITLE2=Journey through life
TTITLE3=Let yourself go/Puttin'on the Ritz
TTITLE4=Inside
TTITLE5=Forget about it
TTITLE6=So clear
TTITLE7=Everything happens to me
TTITLE8=Meandering way
TTITLE9=Angel glow
EXTD=YEAR: 2003
EXTT0=
EXTT1=
EXTT2=
EXTT3=
EXTT4=
EXTT5=
EXTT6=
EXTT7=
EXTT8=
EXTT9=
PLAYORDER=
